<svg width="18" height="18" viewBox="0 0 18 18" fill="none" xmlns="http://www.w3.org/2000/svg">
<g opacity="0.5">
<path d="M16.5 4.125H6.75C5.925 4.125 5.25 4.8 5.25 5.625V12.375C5.25 13.2075 5.925 13.875 6.75 13.875H16.5C17.3325 13.875 18 13.2075 18 12.375V5.625C18 4.8 17.3325 4.125 16.5 4.125ZM16.5 6.8775L11.625 9.375L6.75 6.8775V5.625L11.625 8.1075L16.5 5.625V6.8775ZM3.75 12.375C3.75 12.5025 3.7725 12.6225 3.7875 12.75H0.75C0.336 12.75 0 12.4125 0 12H3.75V12.375ZM2.25 5.25H3.7875C3.7725 5.3775 3.75 5.4975 3.75 5.625V6.75H2.25C1.8375 6.75 1.5 6.4125 1.5 6M0.75 9C0.75 8.5875 1.0875 8.25 1.5 8.25H3.75V9.75H1.5C1.0875 9.75 0.75 9.4125 0.75 9Z" fill="white" fill-opacity="0.25"/>
</g>
</svg>
