<svg width="19" height="13" viewBox="0 0 19 13" fill="none" xmlns="http://www.w3.org/2000/svg">
<g clip-path="url(#clip0_6_1800)">
<path fill-rule="evenodd" clip-rule="evenodd" d="M9.17303 8.70007C7.7608 8.70007 6.61528 7.75171 6.61528 6.58133C6.61528 5.98833 6.90833 5.45376 7.38225 5.06864C7.55821 4.92565 7.56091 4.69158 7.3883 4.54582C7.21568 4.40006 6.93311 4.39782 6.75715 4.54081C6.11935 5.05911 5.72266 5.78154 5.72266 6.58133C5.72266 8.1602 7.26797 9.43948 9.17303 9.43948C10.1377 9.43948 11.0106 9.11092 11.6363 8.58255C11.809 8.4368 11.8063 8.20272 11.6303 8.05973C11.4543 7.91674 11.1718 7.91899 10.9992 8.06474C10.5343 8.45728 9.88815 8.70007 9.17303 8.70007Z" fill="white" fill-opacity="0.25"/>
<path fill-rule="evenodd" clip-rule="evenodd" d="M2.0966 9.64228C3.53103 11.1015 5.80856 12.6003 9.09578 12.6003C11.3252 12.6003 13.0998 11.909 14.4609 11.007C14.6513 10.8808 14.6812 10.6516 14.5278 10.495C14.3743 10.3384 14.0956 10.3138 13.9052 10.44C12.6691 11.2592 11.0849 11.8721 9.09578 11.8721C6.17508 11.8721 4.12576 10.5481 2.78531 9.1845C2.11606 8.50371 1.63242 7.82111 1.31615 7.30811C1.15829 7.05205 1.04285 6.83942 0.967399 6.69198C0.948625 6.6553 0.932338 6.62267 0.918502 6.59445C0.952286 6.52906 0.999812 6.44 1.06135 6.33146C1.20266 6.08221 1.41732 5.73115 1.70845 5.32849C2.29261 4.52052 3.17502 3.51823 4.37653 2.71054C4.56586 2.58326 4.59387 2.35388 4.43909 2.1982C4.28431 2.04251 4.00536 2.01948 3.81603 2.14676C2.50733 3.0265 1.56262 4.1052 0.947231 4.95636C0.63858 5.38326 0.410344 5.75631 0.258709 6.02377C0.182844 6.15759 0.126018 6.26521 0.0877716 6.34021C0.0686448 6.37772 0.0541533 6.40709 0.0442404 6.42753C0.0392836 6.43775 0.0354705 6.44573 0.032794 6.45138L0.0296303 6.4581L0.0286859 6.46013L0.0283727 6.4608L0.0282558 6.46105C0.0282084 6.46116 0.0281654 6.46125 0.442057 6.59063C0.0249443 6.71281 0.025012 6.71297 0.025089 6.71315L0.0252905 6.71361L0.0258637 6.71492L0.0276932 6.71908C0.029217 6.72253 0.0313505 6.72732 0.0340986 6.73342C0.0395945 6.7456 0.0475508 6.763 0.0580091 6.78526C0.0789229 6.82976 0.109859 6.89375 0.151151 6.97444C0.233704 7.13574 0.357841 7.36416 0.526273 7.63737C0.862598 8.18291 1.3784 8.91169 2.0966 9.64228ZM0.442057 6.59063L0.0249443 6.71281C-0.0103664 6.63131 -0.00922449 6.54213 0.0281654 6.46125L0.442057 6.59063Z" fill="white" fill-opacity="0.25"/>
<path fill-rule="evenodd" clip-rule="evenodd" d="M15.0304 9.87456C15.2111 10.0071 15.4887 9.99455 15.6505 9.84649C16.4999 9.06906 17.1093 8.25954 17.5062 7.64604C17.705 7.3387 17.8514 7.07901 17.9487 6.89494C17.9974 6.80287 18.0338 6.7296 18.0584 6.67862C18.0707 6.65312 18.08 6.63319 18.0865 6.61925C18.0897 6.61228 18.0922 6.60681 18.094 6.60289L18.0961 6.59818L18.0967 6.59671L18.0969 6.5962L18.097 6.596C18.0971 6.59592 18.0971 6.59584 17.6843 6.47323C18.0948 6.34546 18.0947 6.34531 18.0946 6.34514L18.0938 6.34342L18.0919 6.33935C18.0903 6.33596 18.0881 6.33123 18.0852 6.3252C18.0794 6.31315 18.071 6.2959 18.06 6.27381C18.0379 6.22964 18.0053 6.16606 17.9621 6.08584C17.8755 5.92545 17.7459 5.6982 17.5717 5.42634C17.2237 4.88347 16.6948 4.15819 15.9707 3.43111C14.527 1.9813 12.264 0.484164 9.08206 0.484164C7.64697 0.484164 6.39398 0.790186 5.319 1.26068C5.10508 1.35431 5.02428 1.57232 5.13855 1.74761C5.25281 1.92291 5.51885 1.98911 5.73278 1.89548C6.69377 1.47488 7.80571 1.20385 9.08206 1.20385C11.8931 1.20385 13.9312 2.52132 15.2903 3.88612C15.9677 4.56635 16.4656 5.24838 16.7942 5.76098C16.9582 6.01686 17.0792 6.2294 17.1588 6.37686C17.179 6.41419 17.1964 6.44733 17.2112 6.47592C17.1928 6.51291 17.17 6.55749 17.1428 6.6089C17.0534 6.77801 16.9168 7.02046 16.7302 7.30899C16.3562 7.88721 15.7851 8.64431 14.9962 9.36644C14.8344 9.51451 14.8497 9.742 15.0304 9.87456ZM17.6843 6.47323L18.0948 6.34546C18.1321 6.426 18.1329 6.51484 18.0971 6.59584L17.6843 6.47323Z" fill="white" fill-opacity="0.25"/>
<path fill-rule="evenodd" clip-rule="evenodd" d="M11.8707 7.32718C12.0991 7.36146 12.3153 7.22414 12.3537 7.02046C12.3832 6.86429 12.4 6.70273 12.4 6.53613C12.4 4.93981 10.9493 3.64493 9.15899 3.64493C8.97223 3.64493 8.79113 3.65987 8.61606 3.68615C8.38774 3.72044 8.23381 3.91334 8.27224 4.11702C8.31067 4.3207 8.52691 4.45802 8.75523 4.42374C8.8881 4.40379 9.02256 4.39289 9.15899 4.39289C10.4861 4.39289 11.5615 5.35276 11.5615 6.53613C11.5615 6.65784 11.5493 6.77778 11.5269 6.89632C11.4885 7.09999 11.6424 7.2929 11.8707 7.32718Z" fill="white" fill-opacity="0.25"/>
<path fill-rule="evenodd" clip-rule="evenodd" d="M5.72266 6.58133C5.72266 8.16014 7.26709 9.43948 9.17303 9.43948C10.1385 9.43948 11.0107 9.11088 11.6363 8.58255C11.809 8.4368 11.8063 8.20272 11.6303 8.05973C11.4543 7.91674 11.1718 7.91899 10.9992 8.06474C10.5342 8.45732 9.8889 8.70007 9.17303 8.70007C7.76006 8.70007 6.61527 7.75178 6.61527 6.58133C6.61527 5.98895 6.90838 5.45372 7.38225 5.06864C7.55821 4.92565 7.56091 4.69158 7.3883 4.54582C7.21568 4.40006 6.9331 4.39782 6.75715 4.54081C6.1193 5.05915 5.72266 5.78227 5.72266 6.58133Z" fill="white" fill-opacity="0.25"/>
<path fill-rule="evenodd" clip-rule="evenodd" d="M16.7243 12.7582C16.894 12.6176 16.894 12.3896 16.7243 12.249L2.3311 0.326214C2.16136 0.185607 1.88616 0.185607 1.71642 0.326214C1.54668 0.46682 1.54668 0.694788 1.71642 0.835395L16.1096 12.7582C16.2794 12.8988 16.5546 12.8988 16.7243 12.7582Z" fill="white" fill-opacity="0.25"/>
</g>
<defs>
<clipPath id="clip0_6_1800">
<rect width="19.0007" height="13" fill="white" transform="translate(-0.000732422)"/>
</clipPath>
</defs>
</svg>
