<svg width="117" height="30" viewBox="0 0 117 30" fill="none" xmlns="http://www.w3.org/2000/svg">
<g opacity="0.5">
<mask id="mask0_51_142" style="mask-type:alpha" maskUnits="userSpaceOnUse" x="0" y="0" width="30" height="30">
<path d="M27.5 17.5H17.5V27.5H27.5V17.5ZM8.125 2.5L13.75 12.5H2.5L8.125 2.5ZM22.5 12.5C23.8261 12.5 25.0979 11.9732 26.0355 11.0355C26.9732 10.0979 27.5 8.82608 27.5 7.5C27.5 6.17392 26.9732 4.90215 26.0355 3.96447C25.0979 3.02678 23.8261 2.5 22.5 2.5C21.1739 2.5 19.9021 3.02678 18.9645 3.96447C18.0268 4.90215 17.5 6.17392 17.5 7.5C17.5 8.82608 18.0268 10.0979 18.9645 11.0355C19.9021 11.9732 21.1739 12.5 22.5 12.5Z" fill="white" stroke="white" stroke-width="4" stroke-linejoin="round"/>
<path d="M2.5 17.5L12.5 27.5M12.5 17.5L2.5 27.5" stroke="white" stroke-width="4" stroke-linecap="round" stroke-linejoin="round"/>
</mask>
<g mask="url(#mask0_51_142)">
<path d="M0 0H30V30H0V0Z" fill="white"/>
</g>
<g clip-path="url(#clip0_51_142)">
<mask id="mask1_51_142" style="mask-type:alpha" maskUnits="userSpaceOnUse" x="0" y="0" width="30" height="30">
<path d="M27.5 17.5H17.5V27.5H27.5V17.5ZM8.125 2.5L13.75 12.5H2.5L8.125 2.5ZM22.5 12.5C23.8261 12.5 25.0979 11.9732 26.0355 11.0355C26.9732 10.0979 27.5 8.82608 27.5 7.5C27.5 6.17392 26.9732 4.90215 26.0355 3.96447C25.0979 3.02678 23.8261 2.5 22.5 2.5C21.1739 2.5 19.9021 3.02678 18.9645 3.96447C18.0268 4.90215 17.5 6.17392 17.5 7.5C17.5 8.82608 18.0268 10.0979 18.9645 11.0355C19.9021 11.9732 21.1739 12.5 22.5 12.5Z" fill="white" stroke="white" stroke-width="4" stroke-linejoin="round"/>
</mask>
<g mask="url(#mask1_51_142)">
<path d="M0 0H30V30H0V0Z" fill="white"/>
</g>
</g>
<path d="M41.48 12.41C40.6693 12.41 39.912 12.2607 39.208 11.962C38.504 11.6633 37.8853 11.2527 37.352 10.73C36.8187 10.1967 36.3973 9.58333 36.088 8.89C35.7893 8.19667 35.64 7.45 35.64 6.65C35.64 5.85 35.7893 5.10333 36.088 4.41C36.3973 3.71667 36.8187 3.10867 37.352 2.586C37.8853 2.05267 38.504 1.63667 39.208 1.338C39.912 1.03933 40.6693 0.889999 41.48 0.889999C41.9813 0.889999 42.4667 0.943333 42.936 1.05C43.4053 1.15667 43.8373 1.31667 44.232 1.53C44.392 1.61533 44.5093 1.73267 44.584 1.882C44.6693 2.02067 44.712 2.16467 44.712 2.314C44.712 2.57 44.6267 2.79933 44.456 3.002C44.2853 3.20467 44.0667 3.306 43.8 3.306C43.7147 3.306 43.624 3.29533 43.528 3.274C43.4427 3.25267 43.3573 3.22067 43.272 3.178C43.0053 3.06067 42.7227 2.97 42.424 2.906C42.1253 2.842 41.8107 2.81 41.48 2.81C40.7867 2.81 40.152 2.986 39.576 3.338C39.0107 3.67933 38.5573 4.14333 38.216 4.73C37.8853 5.306 37.72 5.946 37.72 6.65C37.72 7.34333 37.8853 7.98333 38.216 8.57C38.5573 9.15667 39.0107 9.626 39.576 9.978C40.152 10.3193 40.7867 10.49 41.48 10.49C41.8 10.49 42.152 10.458 42.536 10.394C42.92 10.33 43.2347 10.2447 43.48 10.138L43.336 10.618V7.882L43.608 8.122H41.832C41.5547 8.122 41.32 8.03133 41.128 7.85C40.9467 7.66867 40.856 7.43933 40.856 7.162C40.856 6.88467 40.9467 6.65533 41.128 6.474C41.32 6.29267 41.5547 6.202 41.832 6.202H44.456C44.7333 6.202 44.9627 6.298 45.144 6.49C45.3253 6.67133 45.416 6.90067 45.416 7.178V10.57C45.416 10.7833 45.3627 10.9593 45.256 11.098C45.16 11.2367 45.048 11.3487 44.92 11.434C44.4293 11.7327 43.8907 11.9727 43.304 12.154C42.728 12.3247 42.12 12.41 41.48 12.41ZM51.4526 3.562L47.9966 11.69C47.922 11.8927 47.8046 12.0527 47.6446 12.17C47.4953 12.2767 47.33 12.33 47.1486 12.33C46.8606 12.33 46.6473 12.25 46.5086 12.09C46.37 11.93 46.3006 11.7327 46.3006 11.498C46.3006 11.402 46.3166 11.3007 46.3486 11.194L50.3326 1.626C50.418 1.41267 50.546 1.24733 50.7166 1.13C50.898 1.01267 51.09 0.964666 51.2926 0.985999C51.4846 0.985999 51.6606 1.04467 51.8206 1.162C51.9913 1.26867 52.114 1.42333 52.1886 1.626L56.1246 11.002C56.178 11.1407 56.2046 11.2687 56.2046 11.386C56.2046 11.674 56.1086 11.9033 55.9166 12.074C55.7353 12.2447 55.5326 12.33 55.3086 12.33C55.1166 12.33 54.9406 12.2713 54.7806 12.154C54.6313 12.0367 54.514 11.8767 54.4286 11.674L50.9886 3.658L51.4526 3.562ZM48.4926 9.738L49.3726 7.898H53.6926L53.9966 9.738H48.4926ZM58.5674 1.034C58.7167 1.034 58.8714 1.07667 59.0314 1.162C59.202 1.23667 59.33 1.338 59.4154 1.466L63.3034 7.45L62.5034 7.418L66.4874 1.466C66.69 1.178 66.9514 1.034 67.2714 1.034C67.5274 1.034 67.7567 1.12467 67.9594 1.306C68.162 1.48733 68.2634 1.722 68.2634 2.01V11.274C68.2634 11.5513 68.1727 11.786 67.9914 11.978C67.81 12.1593 67.57 12.25 67.2714 12.25C66.9727 12.25 66.7274 12.1593 66.5354 11.978C66.354 11.786 66.2634 11.5513 66.2634 11.274V3.738L66.8874 3.882L63.6234 8.858C63.5274 8.97533 63.4047 9.07667 63.2554 9.162C63.1167 9.24733 62.9727 9.28467 62.8234 9.274C62.6847 9.28467 62.5407 9.24733 62.3914 9.162C62.2527 9.07667 62.1354 8.97533 62.0394 8.858L58.9834 4.026L59.3994 3.178V11.274C59.3994 11.5513 59.314 11.786 59.1434 11.978C58.9727 12.1593 58.7487 12.25 58.4714 12.25C58.2047 12.25 57.986 12.1593 57.8154 11.978C57.6447 11.786 57.5594 11.5513 57.5594 11.274V2.01C57.5594 1.74333 57.6554 1.514 57.8474 1.322C58.05 1.13 58.29 1.034 58.5674 1.034ZM71.6448 1.05H77.0048C77.2821 1.05 77.5114 1.14067 77.6927 1.322C77.8848 1.49267 77.9808 1.71667 77.9808 1.994C77.9808 2.26067 77.8848 2.47933 77.6927 2.65C77.5114 2.81 77.2821 2.89 77.0048 2.89H72.5248L72.6688 2.618V5.738L72.5408 5.61H76.2848C76.5621 5.61 76.7914 5.70067 76.9728 5.882C77.1648 6.05267 77.2608 6.27667 77.2608 6.554C77.2608 6.82067 77.1648 7.03933 76.9728 7.21C76.7914 7.37 76.5621 7.45 76.2848 7.45H72.5888L72.6688 7.322V10.554L72.5408 10.41H77.0048C77.2821 10.41 77.5114 10.506 77.6927 10.698C77.8848 10.8793 77.9808 11.0927 77.9808 11.338C77.9808 11.6047 77.8848 11.8233 77.6927 11.994C77.5114 12.1647 77.2821 12.25 77.0048 12.25H71.6448C71.3674 12.25 71.1328 12.1593 70.9408 11.978C70.7594 11.786 70.6688 11.5513 70.6688 11.274V2.026C70.6688 1.74867 70.7594 1.51933 70.9408 1.338C71.1328 1.146 71.3674 1.05 71.6448 1.05Z" fill="white"/>
<path d="M39.8 29.41C39.0533 29.41 38.3813 29.3193 37.784 29.138C37.1867 28.946 36.616 28.6153 36.072 28.146C35.9333 28.0287 35.8267 27.8953 35.752 27.746C35.6773 27.5967 35.64 27.4473 35.64 27.298C35.64 27.0527 35.7253 26.8393 35.896 26.658C36.0773 26.466 36.3013 26.37 36.568 26.37C36.7707 26.37 36.952 26.434 37.112 26.562C37.5173 26.8927 37.9173 27.1433 38.312 27.314C38.7173 27.4847 39.2133 27.57 39.8 27.57C40.1947 27.57 40.5573 27.5113 40.888 27.394C41.2187 27.266 41.4853 27.1007 41.688 26.898C41.8907 26.6847 41.992 26.4447 41.992 26.178C41.992 25.858 41.896 25.586 41.704 25.362C41.512 25.138 41.2187 24.9513 40.824 24.802C40.4293 24.642 39.928 24.5193 39.32 24.434C38.744 24.3487 38.2373 24.2207 37.8 24.05C37.3627 23.8687 36.9947 23.6447 36.696 23.378C36.408 23.1007 36.1893 22.7807 36.04 22.418C35.8907 22.0447 35.816 21.6287 35.816 21.17C35.816 20.4767 35.992 19.8847 36.344 19.394C36.7067 18.9033 37.192 18.53 37.8 18.274C38.408 18.018 39.08 17.89 39.816 17.89C40.5093 17.89 41.1493 17.9967 41.736 18.21C42.3333 18.4127 42.8187 18.674 43.192 18.994C43.5013 19.2393 43.656 19.522 43.656 19.842C43.656 20.0767 43.5653 20.29 43.384 20.482C43.2027 20.674 42.9893 20.77 42.744 20.77C42.584 20.77 42.44 20.722 42.312 20.626C42.1413 20.4767 41.912 20.338 41.624 20.21C41.336 20.0713 41.032 19.9593 40.712 19.874C40.392 19.778 40.0933 19.73 39.816 19.73C39.3573 19.73 38.968 19.7887 38.648 19.906C38.3387 20.0233 38.104 20.1833 37.944 20.386C37.784 20.5887 37.704 20.8233 37.704 21.09C37.704 21.41 37.7947 21.6767 37.976 21.89C38.168 22.0927 38.44 22.258 38.792 22.386C39.144 22.5033 39.5653 22.61 40.056 22.706C40.696 22.8233 41.256 22.962 41.736 23.122C42.2267 23.282 42.632 23.49 42.952 23.746C43.272 23.9913 43.512 24.306 43.672 24.69C43.832 25.0633 43.912 25.522 43.912 26.066C43.912 26.7593 43.72 27.3567 43.336 27.858C42.952 28.3593 42.4453 28.7433 41.816 29.01C41.1973 29.2767 40.5253 29.41 39.8 29.41ZM49.5389 29.25C49.2402 29.25 48.9949 29.1593 48.8029 28.978C48.6109 28.786 48.5149 28.5513 48.5149 28.274V18.994H50.5949V28.274C50.5949 28.5513 50.4935 28.786 50.2909 28.978C50.0989 29.1593 49.8482 29.25 49.5389 29.25ZM46.0029 19.89C45.7255 19.89 45.4909 19.8047 45.2989 19.634C45.1175 19.4633 45.0269 19.2393 45.0269 18.962C45.0269 18.6847 45.1175 18.466 45.2989 18.306C45.4909 18.1353 45.7255 18.05 46.0029 18.05H53.1069C53.3842 18.05 53.6135 18.1353 53.7949 18.306C53.9869 18.4767 54.0829 18.7007 54.0829 18.978C54.0829 19.2553 53.9869 19.4793 53.7949 19.65C53.6135 19.81 53.3842 19.89 53.1069 19.89H46.0029ZM65.754 23.65C65.754 24.45 65.6207 25.1967 65.354 25.89C65.0873 26.5833 64.7087 27.1967 64.218 27.73C63.738 28.2527 63.162 28.6633 62.49 28.962C61.8287 29.2607 61.1033 29.41 60.314 29.41C59.5247 29.41 58.7993 29.2607 58.138 28.962C57.4767 28.6633 56.9007 28.2527 56.41 27.73C55.93 27.1967 55.5567 26.5833 55.29 25.89C55.0233 25.1967 54.89 24.45 54.89 23.65C54.89 22.85 55.0233 22.1033 55.29 21.41C55.5567 20.7167 55.93 20.1087 56.41 19.586C56.9007 19.0527 57.4767 18.6367 58.138 18.338C58.7993 18.0393 59.5247 17.89 60.314 17.89C61.1033 17.89 61.8287 18.0393 62.49 18.338C63.162 18.6367 63.738 19.0527 64.218 19.586C64.7087 20.1087 65.0873 20.7167 65.354 21.41C65.6207 22.1033 65.754 22.85 65.754 23.65ZM63.674 23.65C63.674 22.9353 63.53 22.29 63.242 21.714C62.954 21.1273 62.5593 20.6633 62.058 20.322C61.5567 19.9807 60.9753 19.81 60.314 19.81C59.6527 19.81 59.0713 19.9807 58.57 20.322C58.0687 20.6633 57.674 21.122 57.386 21.698C57.1087 22.274 56.97 22.9247 56.97 23.65C56.97 24.3647 57.1087 25.0153 57.386 25.602C57.674 26.178 58.0687 26.6367 58.57 26.978C59.0713 27.3193 59.6527 27.49 60.314 27.49C60.9753 27.49 61.5567 27.3193 62.058 26.978C62.5593 26.6367 62.954 26.178 63.242 25.602C63.53 25.0153 63.674 24.3647 63.674 23.65ZM68.7426 29.25C68.444 29.25 68.1773 29.1593 67.9426 28.978C67.708 28.786 67.5906 28.5513 67.5906 28.274V19.026C67.5906 18.7487 67.6813 18.5193 67.8626 18.338C68.0546 18.146 68.2893 18.05 68.5666 18.05H73.1746C73.7293 18.05 74.2466 18.1993 74.7266 18.498C75.2173 18.786 75.612 19.1913 75.9106 19.714C76.2093 20.226 76.3586 20.818 76.3586 21.49C76.3586 21.8953 76.2733 22.29 76.1026 22.674C75.9426 23.058 75.7186 23.4047 75.4306 23.714C75.1533 24.0233 74.8386 24.2633 74.4866 24.434L74.5026 24.066C74.8013 24.226 75.0466 24.418 75.2386 24.642C75.4413 24.8553 75.596 25.09 75.7026 25.346C75.82 25.5913 75.8893 25.858 75.9106 26.146C75.9533 26.4127 75.98 26.6473 75.9906 26.85C76.012 27.0527 76.044 27.2233 76.0866 27.362C76.14 27.5007 76.236 27.6073 76.3746 27.682C76.6093 27.8207 76.7533 28.0233 76.8066 28.29C76.8706 28.546 76.812 28.7753 76.6306 28.978C76.5133 29.1167 76.364 29.2073 76.1826 29.25C76.0013 29.282 75.82 29.282 75.6386 29.25C75.4573 29.2073 75.308 29.154 75.1906 29.09C75.0093 28.9833 74.828 28.8287 74.6466 28.626C74.4653 28.4127 74.316 28.13 74.1986 27.778C74.092 27.426 74.0386 26.9727 74.0386 26.418C74.0386 26.2367 74.0066 26.0713 73.9426 25.922C73.8786 25.762 73.788 25.6287 73.6706 25.522C73.5533 25.4047 73.404 25.3193 73.2226 25.266C73.0413 25.202 72.828 25.17 72.5826 25.17H69.3506L69.5906 24.802V28.274C69.5906 28.5513 69.516 28.786 69.3666 28.978C69.2173 29.1593 69.0093 29.25 68.7426 29.25ZM69.3666 23.522H73.0946C73.2866 23.522 73.4733 23.4367 73.6546 23.266C73.836 23.0847 73.9853 22.8447 74.1026 22.546C74.22 22.2367 74.2786 21.9007 74.2786 21.538C74.2786 21.0687 74.1506 20.6793 73.8946 20.37C73.6493 20.05 73.3826 19.89 73.0946 19.89H69.3986L69.5906 19.378V23.906L69.3666 23.522ZM79.551 18.05H84.911C85.1883 18.05 85.4177 18.1407 85.599 18.322C85.791 18.4927 85.887 18.7167 85.887 18.994C85.887 19.2607 85.791 19.4793 85.599 19.65C85.4177 19.81 85.1883 19.89 84.911 19.89H80.431L80.575 19.618V22.738L80.447 22.61H84.191C84.4683 22.61 84.6977 22.7007 84.879 22.882C85.071 23.0527 85.167 23.2767 85.167 23.554C85.167 23.8207 85.071 24.0393 84.879 24.21C84.6977 24.37 84.4683 24.45 84.191 24.45H80.495L80.575 24.322V27.554L80.447 27.41H84.911C85.1883 27.41 85.4177 27.506 85.599 27.698C85.791 27.8793 85.887 28.0927 85.887 28.338C85.887 28.6047 85.791 28.8233 85.599 28.994C85.4177 29.1647 85.1883 29.25 84.911 29.25H79.551C79.2737 29.25 79.039 29.1593 78.847 28.978C78.6657 28.786 78.575 28.5513 78.575 28.274V19.026C78.575 18.7487 78.6657 18.5193 78.847 18.338C79.039 18.146 79.2737 18.05 79.551 18.05Z" fill="white"/>
</g>
<defs>
<clipPath id="clip0_51_142">
<rect width="14.375" height="30" fill="white" transform="translate(15.625)"/>
</clipPath>
</defs>
</svg>
