<svg width="20" height="21" viewBox="0 0 20 21" fill="none" xmlns="http://www.w3.org/2000/svg">
<path d="M6.64175 13.733L4.16675 16.233C3.89175 16.483 3.52508 16.6497 3.12508 16.6497C2.31675 16.6497 1.66675 15.9997 1.66675 15.1913V14.983L2.50008 8.83299C2.67508 6.90799 4.28341 5.39966 6.25008 5.39966H13.7501C15.7167 5.39966 17.3251 6.90799 17.5001 8.83299L18.3334 14.983V15.1913C18.3334 15.9997 17.6834 16.6497 16.8751 16.6497C16.4751 16.6497 16.1084 16.483 15.8334 16.233L13.3584 13.733H6.64175ZM5.83341 7.06632V8.73299H4.16675V9.56632H5.83341V11.233H6.66675V9.56632H8.33341V8.73299H6.66675V7.06632H5.83341ZM13.7501 7.06632C13.4084 7.06632 13.1251 7.34966 13.1251 7.69132C13.1251 8.03299 13.4084 8.31632 13.7501 8.31632C14.0917 8.31632 14.3751 8.03299 14.3751 7.69132C14.3751 7.34966 14.0917 7.06632 13.7501 7.06632ZM12.2917 8.52466C11.9501 8.52466 11.6667 8.80799 11.6667 9.14966C11.6667 9.49132 11.9501 9.77466 12.2917 9.77466C12.6334 9.77466 12.9167 9.49132 12.9167 9.14966C12.9167 8.80799 12.6334 8.52466 12.2917 8.52466ZM15.2084 8.52466C14.8667 8.52466 14.5834 8.80799 14.5834 9.14966C14.5834 9.49132 14.8667 9.77466 15.2084 9.77466C15.5501 9.77466 15.8334 9.49132 15.8334 9.14966C15.8334 8.80799 15.5501 8.52466 15.2084 8.52466ZM13.7501 9.98299C13.4084 9.98299 13.1251 10.2663 13.1251 10.608C13.1251 10.9497 13.4084 11.233 13.7501 11.233C14.0917 11.233 14.3751 10.9497 14.3751 10.608C14.3751 10.2663 14.0917 9.98299 13.7501 9.98299Z" fill="#4F524F"/>
</svg>
