<svg width="18" height="19" viewBox="0 0 18 19" fill="none" xmlns="http://www.w3.org/2000/svg">
<path d="M15 4.69983H3V3.19983H15V4.69983ZM11.7675 10.6998H10.5V11.9673C10.0275 12.6798 9.75 13.5273 9.75 14.4498C9.75 14.7048 9.78 14.9523 9.8175 15.1998H3V10.6998H2.25V9.19983L3 5.44983H15L15.75 9.19983V10.2123C15.2775 10.0473 14.775 9.94983 14.25 9.94983C13.3275 9.94983 12.48 10.2273 11.7675 10.6998ZM9 10.6998H4.5V13.6998H9V10.6998ZM16.005 12.0798L13.3125 14.7723L12.12 13.5798L11.25 14.4498L13.3125 16.6998L16.875 13.1373L16.005 12.0798Z" fill="#4F524F"/>
</svg>
