<svg width="86" height="22" viewBox="0 0 86 22" fill="none" xmlns="http://www.w3.org/2000/svg">
<g opacity="0.2">
<g clip-path="url(#clip0_51_384)">
<mask id="mask0_51_384" style="mask-type:alpha" maskUnits="userSpaceOnUse" x="0" y="0" width="22" height="22">
<path d="M20.1666 12.8333H12.8333V20.1667H20.1666V12.8333ZM5.95825 1.83334L10.0833 9.16668H1.83325L5.95825 1.83334ZM16.4999 9.16668C17.4724 9.16668 18.405 8.78037 19.0926 8.09274C19.7803 7.4051 20.1666 6.47247 20.1666 5.50001C20.1666 4.52755 19.7803 3.59492 19.0926 2.90729C18.405 2.21965 17.4724 1.83334 16.4999 1.83334C15.5275 1.83334 14.5948 2.21965 13.9072 2.90729C13.2196 3.59492 12.8333 4.52755 12.8333 5.50001C12.8333 6.47247 13.2196 7.4051 13.9072 8.09274C14.5948 8.78037 15.5275 9.16668 16.4999 9.16668Z" fill="white" stroke="white" stroke-width="2.93333" stroke-linejoin="round"/>
<path d="M1.83325 12.8333L9.16659 20.1667M9.16659 12.8333L1.83325 20.1667" stroke="white" stroke-width="2.93333" stroke-linecap="round" stroke-linejoin="round"/>
</mask>
<g mask="url(#mask0_51_384)">
<path d="M0 0H22V22H0V0Z" fill="white"/>
</g>
<g clip-path="url(#clip1_51_384)">
<mask id="mask1_51_384" style="mask-type:alpha" maskUnits="userSpaceOnUse" x="0" y="0" width="22" height="22">
<path d="M20.1666 12.8333H12.8333V20.1667H20.1666V12.8333ZM5.95825 1.83334L10.0833 9.16668H1.83325L5.95825 1.83334ZM16.4999 9.16668C17.4724 9.16668 18.405 8.78037 19.0926 8.09274C19.7803 7.4051 20.1666 6.47247 20.1666 5.50001C20.1666 4.52755 19.7803 3.59492 19.0926 2.90729C18.405 2.21965 17.4724 1.83334 16.4999 1.83334C15.5275 1.83334 14.5948 2.21965 13.9072 2.90729C13.2196 3.59492 12.8333 4.52755 12.8333 5.50001C12.8333 6.47247 13.2196 7.4051 13.9072 8.09274C14.5948 8.78037 15.5275 9.16668 16.4999 9.16668Z" fill="white" stroke="white" stroke-width="2.93333" stroke-linejoin="round"/>
</mask>
<g mask="url(#mask1_51_384)">
<path d="M0 0H22V22H0V0Z" fill="white"/>
</g>
</g>
</g>
<path d="M30.4186 9.03399C29.8241 9.03399 29.2688 8.92448 28.7525 8.70546C28.2362 8.48643 27.7825 8.18528 27.3914 7.80199C27.0003 7.41088 26.6913 6.9611 26.4645 6.45266C26.2455 5.94421 26.136 5.39666 26.136 4.80999C26.136 4.22332 26.2455 3.67577 26.4645 3.16732C26.6913 2.65888 27.0003 2.21301 27.3914 1.82972C27.7825 1.43861 28.2362 1.13354 28.7525 0.914523C29.2688 0.6955 29.8241 0.585989 30.4186 0.585989C30.7863 0.585989 31.1422 0.6251 31.4864 0.703322C31.8305 0.781545 32.1473 0.898878 32.4368 1.05532C32.5541 1.1179 32.6401 1.20394 32.6949 1.31346C32.7575 1.41514 32.7888 1.52074 32.7888 1.63026C32.7888 1.81799 32.7262 1.98617 32.601 2.13479C32.4759 2.28341 32.3155 2.35772 32.12 2.35772C32.0574 2.35772 31.9909 2.3499 31.9205 2.33426C31.8579 2.31861 31.7953 2.29514 31.7328 2.26386C31.5372 2.17781 31.3299 2.11132 31.1109 2.06439C30.8919 2.01746 30.6611 1.99399 30.4186 1.99399C29.9102 1.99399 29.4448 2.12306 29.0224 2.38119C28.6078 2.6315 28.2753 2.97177 28.025 3.40199C27.7825 3.82439 27.6613 4.29372 27.6613 4.80999C27.6613 5.31843 27.7825 5.78777 28.025 6.21799C28.2753 6.64821 28.6078 6.99239 29.0224 7.25052C29.4448 7.50083 29.9102 7.62599 30.4186 7.62599C30.6533 7.62599 30.9114 7.60252 31.193 7.55559C31.4746 7.50866 31.7054 7.44608 31.8853 7.36786L31.7797 7.71986V5.71346L31.9792 5.88946H30.6768C30.4734 5.88946 30.3013 5.82297 30.1605 5.68999C30.0275 5.55701 29.961 5.38883 29.961 5.18546C29.961 4.98208 30.0275 4.8139 30.1605 4.68092C30.3013 4.54795 30.4734 4.48146 30.6768 4.48146H32.601C32.8044 4.48146 32.9726 4.55186 33.1056 4.69266C33.2385 4.82563 33.305 4.99381 33.305 5.19719V7.68466C33.305 7.8411 33.2659 7.97017 33.1877 8.07186C33.1173 8.17355 33.0352 8.25568 32.9413 8.31826C32.5815 8.53728 32.1864 8.71328 31.7562 8.84626C31.3338 8.97141 30.888 9.03399 30.4186 9.03399ZM37.7319 2.54546L35.1975 8.50599C35.1427 8.65461 35.0567 8.77195 34.9394 8.85799C34.8298 8.93621 34.7086 8.97532 34.5756 8.97532C34.3644 8.97532 34.208 8.91666 34.1063 8.79932C34.0046 8.68199 33.9538 8.53728 33.9538 8.36519C33.9538 8.29479 33.9655 8.22048 33.989 8.14226L36.9106 1.12572C36.9731 0.969278 37.067 0.848034 37.1922 0.761989C37.3251 0.675945 37.4659 0.640745 37.6146 0.656389C37.7554 0.656389 37.8844 0.699411 38.0018 0.785456C38.1269 0.863678 38.2169 0.9771 38.2716 1.12572L41.158 8.00146C41.1971 8.10315 41.2167 8.19701 41.2167 8.28306C41.2167 8.49426 41.1463 8.66243 41.0055 8.78759C40.8725 8.91275 40.7239 8.97532 40.5596 8.97532C40.4188 8.97532 40.2898 8.9323 40.1724 8.84626C40.0629 8.76021 39.9769 8.64288 39.9143 8.49426L37.3916 2.61586L37.7319 2.54546ZM35.5612 7.07452L36.2066 5.72519H39.3746L39.5975 7.07452H35.5612ZM42.9494 0.691589C43.0589 0.691589 43.1723 0.722878 43.2896 0.785456C43.4148 0.840211 43.5087 0.914523 43.5712 1.00839L46.4224 5.39666L45.8358 5.37319L48.7574 1.00839C48.906 0.797189 49.0976 0.691589 49.3323 0.691589C49.52 0.691589 49.6882 0.758078 49.8368 0.891056C49.9855 1.02403 50.0598 1.19612 50.0598 1.40732V8.20092C50.0598 8.4043 49.9933 8.57639 49.8603 8.71719C49.7273 8.85017 49.5513 8.91666 49.3323 8.91666C49.1133 8.91666 48.9334 8.85017 48.7926 8.71719C48.6596 8.57639 48.5931 8.4043 48.5931 8.20092V2.67452L49.0507 2.78012L46.6571 6.42919C46.5867 6.51523 46.4967 6.58955 46.3872 6.65212C46.2855 6.7147 46.1799 6.74208 46.0704 6.73426C45.9687 6.74208 45.8631 6.7147 45.7536 6.65212C45.6519 6.58955 45.5659 6.51523 45.4955 6.42919L43.2544 2.88572L43.5595 2.26386V8.20092C43.5595 8.4043 43.4969 8.57639 43.3718 8.71719C43.2466 8.85017 43.0823 8.91666 42.879 8.91666C42.6834 8.91666 42.5231 8.85017 42.3979 8.71719C42.2727 8.57639 42.2102 8.4043 42.2102 8.20092V1.40732C42.2102 1.21177 42.2806 1.04359 42.4214 0.902789C42.57 0.761989 42.746 0.691589 42.9494 0.691589ZM52.5394 0.703322H56.4701C56.6735 0.703322 56.8417 0.769811 56.9746 0.902789C57.1154 1.02794 57.1858 1.19221 57.1858 1.39559C57.1858 1.59114 57.1154 1.7515 56.9746 1.87666C56.8417 1.99399 56.6735 2.05266 56.4701 2.05266H53.1848L53.2904 1.85319V4.14119L53.1965 4.04732H55.9421C56.1455 4.04732 56.3137 4.11381 56.4466 4.24679C56.5874 4.37194 56.6578 4.53621 56.6578 4.73959C56.6578 4.93515 56.5874 5.0955 56.4466 5.22066C56.3137 5.33799 56.1455 5.39666 55.9421 5.39666H53.2317L53.2904 5.30279V7.67292L53.1965 7.56732H56.4701C56.6735 7.56732 56.8417 7.63772 56.9746 7.77852C57.1154 7.9115 57.1858 8.06795 57.1858 8.24786C57.1858 8.44341 57.1154 8.60377 56.9746 8.72892C56.8417 8.85408 56.6735 8.91666 56.4701 8.91666H52.5394C52.3361 8.91666 52.164 8.85017 52.0232 8.71719C51.8902 8.57639 51.8237 8.4043 51.8237 8.20092V1.41906C51.8237 1.21568 51.8902 1.0475 52.0232 0.914523C52.164 0.773722 52.3361 0.703322 52.5394 0.703322Z" fill="white"/>
<path d="M29.1866 21.834C28.6391 21.834 28.1463 21.7675 27.7082 21.6345C27.2702 21.4937 26.8517 21.2513 26.4528 20.9071C26.3511 20.821 26.2728 20.7233 26.2181 20.6137C26.1633 20.5042 26.136 20.3947 26.136 20.2852C26.136 20.1053 26.1985 19.9489 26.3237 19.8159C26.4567 19.6751 26.6209 19.6047 26.8165 19.6047C26.9651 19.6047 27.0981 19.6516 27.2154 19.7455C27.5127 19.988 27.806 20.1718 28.0954 20.2969C28.3927 20.4221 28.7564 20.4847 29.1866 20.4847C29.476 20.4847 29.742 20.4417 29.9845 20.3556C30.227 20.2617 30.4225 20.1405 30.5712 19.9919C30.7198 19.8354 30.7941 19.6594 30.7941 19.4639C30.7941 19.2292 30.7237 19.0297 30.5829 18.8655C30.4421 18.7012 30.227 18.5643 29.9376 18.4548C29.6481 18.3375 29.2805 18.2475 28.8346 18.1849C28.4122 18.1224 28.0407 18.0285 27.72 17.9033C27.3992 17.7704 27.1294 17.6061 26.9104 17.4105C26.6992 17.2072 26.5388 16.9725 26.4293 16.7065C26.3198 16.4328 26.265 16.1277 26.265 15.7913C26.265 15.2829 26.3941 14.8488 26.6522 14.4889C26.9182 14.1291 27.2741 13.8553 27.72 13.6676C28.1658 13.4799 28.6586 13.386 29.1984 13.386C29.7068 13.386 30.1761 13.4642 30.6064 13.6207C31.0444 13.7693 31.4003 13.9609 31.6741 14.1956C31.9009 14.3755 32.0144 14.5828 32.0144 14.8175C32.0144 14.9896 31.9479 15.146 31.8149 15.2868C31.6819 15.4276 31.5255 15.498 31.3456 15.498C31.2282 15.498 31.1226 15.4628 31.0288 15.3924C30.9036 15.2829 30.7354 15.1812 30.5242 15.0873C30.313 14.9857 30.0901 14.9035 29.8554 14.8409C29.6208 14.7705 29.4017 14.7353 29.1984 14.7353C28.862 14.7353 28.5765 14.7784 28.3418 14.8644C28.115 14.9505 27.9429 15.0678 27.8256 15.2164C27.7082 15.365 27.6496 15.5371 27.6496 15.7327C27.6496 15.9673 27.716 16.1629 27.849 16.3193C27.9898 16.468 28.1893 16.5892 28.4474 16.6831C28.7056 16.7691 29.0145 16.8473 29.3744 16.9177C29.8437 17.0038 30.2544 17.1055 30.6064 17.2228C30.9662 17.3401 31.2634 17.4927 31.4981 17.6804C31.7328 17.8603 31.9088 18.0911 32.0261 18.3727C32.1434 18.6465 32.2021 18.9828 32.2021 19.3817C32.2021 19.8902 32.0613 20.3282 31.7797 20.6959C31.4981 21.0635 31.1265 21.3451 30.665 21.5407C30.2113 21.7362 29.7185 21.834 29.1866 21.834ZM36.3285 21.7167C36.1094 21.7167 35.9295 21.6502 35.7887 21.5172C35.6479 21.3764 35.5775 21.2043 35.5775 21.0009V14.1956H37.1029V21.0009C37.1029 21.2043 37.0286 21.3764 36.8799 21.5172C36.7391 21.6502 36.5553 21.7167 36.3285 21.7167ZM33.7354 14.8527C33.532 14.8527 33.3599 14.7901 33.2191 14.6649C33.0862 14.5398 33.0197 14.3755 33.0197 14.1721C33.0197 13.9688 33.0862 13.8084 33.2191 13.6911C33.3599 13.5659 33.532 13.5033 33.7354 13.5033H38.945C39.1484 13.5033 39.3166 13.5659 39.4495 13.6911C39.5903 13.8162 39.6607 13.9805 39.6607 14.1839C39.6607 14.3873 39.5903 14.5515 39.4495 14.6767C39.3166 14.794 39.1484 14.8527 38.945 14.8527H33.7354ZM48.2196 17.61C48.2196 18.1967 48.1218 18.7442 47.9262 19.2527C47.7307 19.7611 47.453 20.2109 47.0932 20.602C46.7412 20.9853 46.3188 21.2865 45.826 21.5055C45.341 21.7245 44.8091 21.834 44.2302 21.834C43.6514 21.834 43.1195 21.7245 42.6345 21.5055C42.1495 21.2865 41.7271 20.9853 41.3673 20.602C41.0153 20.2109 40.7415 19.7611 40.546 19.2527C40.3504 18.7442 40.2526 18.1967 40.2526 17.61C40.2526 17.0233 40.3504 16.4758 40.546 15.9673C40.7415 15.4589 41.0153 15.013 41.3673 14.6297C41.7271 14.2386 42.1495 13.9336 42.6345 13.7145C43.1195 13.4955 43.6514 13.386 44.2302 13.386C44.8091 13.386 45.341 13.4955 45.826 13.7145C46.3188 13.9336 46.7412 14.2386 47.0932 14.6297C47.453 15.013 47.7307 15.4589 47.9262 15.9673C48.1218 16.4758 48.2196 17.0233 48.2196 17.61ZM46.6942 17.61C46.6942 17.0859 46.5886 16.6127 46.3774 16.1903C46.1662 15.7601 45.8768 15.4198 45.5092 15.1695C45.1415 14.9192 44.7152 14.794 44.2302 14.794C43.7452 14.794 43.3189 14.9192 42.9513 15.1695C42.5836 15.4198 42.2942 15.7561 42.083 16.1785C41.8796 16.6009 41.778 17.0781 41.778 17.61C41.778 18.1341 41.8796 18.6113 42.083 19.0415C42.2942 19.4639 42.5836 19.8002 42.9513 20.0505C43.3189 20.3009 43.7452 20.426 44.2302 20.426C44.7152 20.426 45.1415 20.3009 45.5092 20.0505C45.8768 19.8002 46.1662 19.4639 46.3774 19.0415C46.5886 18.6113 46.6942 18.1341 46.6942 17.61ZM50.4112 21.7167C50.1922 21.7167 49.9966 21.6502 49.8246 21.5172C49.6525 21.3764 49.5664 21.2043 49.5664 21.0009V14.2191C49.5664 14.0157 49.6329 13.8475 49.7659 13.7145C49.9067 13.5737 50.0788 13.5033 50.2822 13.5033H53.6614C54.0681 13.5033 54.4475 13.6129 54.7995 13.8319C55.1593 14.0431 55.4487 14.3403 55.6678 14.7236C55.8868 15.0991 55.9963 15.5332 55.9963 16.026C55.9963 16.3233 55.9337 16.6127 55.8086 16.8943C55.6912 17.1759 55.527 17.4301 55.3158 17.6569C55.1124 17.8838 54.8816 18.0598 54.6235 18.1849L54.6352 17.9151C54.8542 18.0324 55.0342 18.1732 55.175 18.3375C55.3236 18.4939 55.437 18.666 55.5152 18.8537C55.6013 19.0337 55.6521 19.2292 55.6678 19.4404C55.699 19.636 55.7186 19.8081 55.7264 19.9567C55.7421 20.1053 55.7655 20.2305 55.7968 20.3321C55.8359 20.4338 55.9063 20.5121 56.008 20.5668C56.1801 20.6685 56.2857 20.8171 56.3248 21.0127C56.3718 21.2004 56.3287 21.3686 56.1958 21.5172C56.1097 21.6189 56.0002 21.6854 55.8672 21.7167C55.7342 21.7401 55.6013 21.7401 55.4683 21.7167C55.3353 21.6854 55.2258 21.6463 55.1398 21.5993C55.0068 21.5211 54.8738 21.4077 54.7408 21.2591C54.6078 21.1026 54.4983 20.8953 54.4123 20.6372C54.3341 20.3791 54.295 20.0466 54.295 19.6399C54.295 19.5069 54.2715 19.3857 54.2246 19.2761C54.1776 19.1588 54.1111 19.061 54.0251 18.9828C53.939 18.8968 53.8295 18.8342 53.6966 18.7951C53.5636 18.7481 53.4071 18.7247 53.2272 18.7247H50.8571L51.0331 18.4548V21.0009C51.0331 21.2043 50.9783 21.3764 50.8688 21.5172C50.7593 21.6502 50.6068 21.7167 50.4112 21.7167ZM50.8688 17.5161H53.6027C53.7435 17.5161 53.8804 17.4536 54.0134 17.3284C54.1463 17.1954 54.2558 17.0194 54.3419 16.8004C54.4279 16.5736 54.471 16.3272 54.471 16.0612C54.471 15.717 54.3771 15.4315 54.1894 15.2047C54.0094 14.97 53.8139 14.8527 53.6027 14.8527H50.8923L51.0331 14.4772V17.7977L50.8688 17.5161ZM58.3374 13.5033H62.268C62.4714 13.5033 62.6396 13.5698 62.7726 13.7028C62.9134 13.828 62.9838 13.9922 62.9838 14.1956C62.9838 14.3912 62.9134 14.5515 62.7726 14.6767C62.6396 14.794 62.4714 14.8527 62.268 14.8527H58.9827L59.0883 14.6532V16.9412L58.9944 16.8473H61.74C61.9434 16.8473 62.1116 16.9138 62.2446 17.0468C62.3854 17.172 62.4558 17.3362 62.4558 17.5396C62.4558 17.7352 62.3854 17.8955 62.2446 18.0207C62.1116 18.138 61.9434 18.1967 61.74 18.1967H59.0296L59.0883 18.1028V20.4729L58.9944 20.3673H62.268C62.4714 20.3673 62.6396 20.4377 62.7726 20.5785C62.9134 20.7115 62.9838 20.868 62.9838 21.0479C62.9838 21.2434 62.9134 21.4038 62.7726 21.5289C62.6396 21.6541 62.4714 21.7167 62.268 21.7167H58.3374C58.134 21.7167 57.9619 21.6502 57.8211 21.5172C57.6881 21.3764 57.6216 21.2043 57.6216 21.0009V14.2191C57.6216 14.0157 57.6881 13.8475 57.8211 13.7145C57.9619 13.5737 58.134 13.5033 58.3374 13.5033Z" fill="white"/>
</g>
<defs>
<clipPath id="clip0_51_384">
<rect width="22" height="22" fill="white"/>
</clipPath>
<clipPath id="clip1_51_384">
<rect width="10.5417" height="22" fill="white" transform="translate(11.4583)"/>
</clipPath>
</defs>
</svg>
