<svg width="18" height="18" viewBox="0 0 18 18" fill="none" xmlns="http://www.w3.org/2000/svg">
<path d="M1.5 2.25H16.5C17.2875 2.25 18 2.9625 18 3.75V14.25C18 15.0375 17.2875 15.75 16.5 15.75H1.5C0.7125 15.75 0 15.0375 0 14.25V3.75C0 2.9625 0.7125 2.25 1.5 2.25ZM10.5 4.5V5.25H16.5V4.5H10.5ZM10.5 6V6.75H16.125H16.5V6H10.5ZM10.5 7.5V8.25H15.75V7.5H10.5ZM6 10.4325C4.5 10.4325 1.5 11.25 1.5 12.75V13.5H10.5V12.75C10.5 11.25 7.5 10.4325 6 10.4325ZM6 4.5C4.755 4.5 3.75 5.505 3.75 6.75C3.75 7.995 4.755 9 6 9C7.245 9 8.25 7.995 8.25 6.75C8.25 5.505 7.245 4.5 6 4.5Z" fill="#4F524F"/>
</svg>
