<svg width="20" height="20" viewBox="0 0 20 20" fill="none" xmlns="http://www.w3.org/2000/svg">
<path d="M10.75 11.2499C9.08125 11.2499 5.75 12.0812 5.75 13.7499V14.9999H15.75V13.7499C15.75 12.0812 12.4188 11.2499 10.75 11.2499ZM5.125 8.74994V6.87494H3.875V8.74994H2V9.99994H3.875V11.8749H5.125V9.99994H7V8.74994M10.75 9.99994C11.413 9.99994 12.0489 9.73655 12.5178 9.26771C12.9866 8.79887 13.25 8.16298 13.25 7.49994C13.25 6.8369 12.9866 6.20101 12.5178 5.73217C12.0489 5.26333 11.413 4.99994 10.75 4.99994C10.087 4.99994 9.45107 5.26333 8.98223 5.73217C8.51339 6.20101 8.25 6.8369 8.25 7.49994C8.25 8.16298 8.51339 8.79887 8.98223 9.26771C9.45107 9.73655 10.087 9.99994 10.75 9.99994Z" fill="white"/>
</svg>
