<svg width="18" height="19" viewBox="0 0 18 19" fill="none" xmlns="http://www.w3.org/2000/svg">
<g opacity="0.25">
<path d="M8.61955 2.09949C10.4815 2.09949 12 3.59199 12 5.42949V9.02199H7.42151C7.09339 9.02199 6.83394 9.27699 6.83394 9.59949C6.83394 9.91449 7.09339 10.177 7.42151 10.177H12V13.762C12 15.5995 10.4815 17.0995 8.60429 17.0995H4.88808C3.01853 17.0995 1.5 15.607 1.5 13.7695V5.43699C1.5 3.59199 3.02616 2.09949 4.89571 2.09949H8.61955ZM13.9051 7.01214C14.1301 6.77964 14.4976 6.77964 14.7226 7.00464L16.9126 9.18714C17.0251 9.29964 17.0851 9.44214 17.0851 9.59964C17.0851 9.74964 17.0251 9.89964 16.9126 10.0046L14.7226 12.1871C14.6101 12.2996 14.4602 12.3596 14.3176 12.3596C14.1677 12.3596 14.0176 12.2996 13.9051 12.1871C13.6801 11.9621 13.6801 11.5946 13.9051 11.3696L15.1052 10.1771H12.0002V9.02214H15.1052L13.9051 7.82964C13.6801 7.60464 13.6801 7.23714 13.9051 7.01214Z" fill="#EFEEE0"/>
</g>
</svg>
