<svg width="26" height="26" viewBox="0 0 26 26" fill="none" xmlns="http://www.w3.org/2000/svg">
<g filter="url(#filter0_d_51_432)">
<path d="M10.3818 19.936V17.6465C10.3817 17.0663 10.8784 16.595 11.4935 16.5913H13.7521C14.37 16.5913 14.8709 17.0637 14.8709 17.6465V19.9294C14.8709 20.4326 15.3013 20.8416 15.8348 20.8453H17.3758C18.0954 20.847 18.7863 20.5786 19.2958 20.0992C19.8054 19.6199 20.0917 18.969 20.0917 18.2902V11.7866C20.0917 11.2383 19.834 10.7182 19.3881 10.3664L14.1532 6.4178C13.2381 5.72714 11.9311 5.74945 11.0432 6.47089L5.9208 10.3664C5.4538 10.7078 5.17468 11.2295 5.16089 11.7866V18.2836C5.16089 19.6983 6.37687 20.8453 7.87687 20.8453H9.38262C9.63949 20.847 9.88649 20.752 10.0688 20.5813C10.2511 20.4106 10.3536 20.1783 10.3536 19.936H10.3818Z" fill="#4461F2"/>
</g>
<defs>
<filter id="filter0_d_51_432" x="0.160889" y="0.914429" width="24.9309" height="24.9308" filterUnits="userSpaceOnUse" color-interpolation-filters="sRGB">
<feFlood flood-opacity="0" result="BackgroundImageFix"/>
<feColorMatrix in="SourceAlpha" type="matrix" values="0 0 0 0 0 0 0 0 0 0 0 0 0 0 0 0 0 0 127 0" result="hardAlpha"/>
<feOffset/>
<feGaussianBlur stdDeviation="2.5"/>
<feComposite in2="hardAlpha" operator="out"/>
<feColorMatrix type="matrix" values="0 0 0 0 0.266667 0 0 0 0 0.380392 0 0 0 0 0.94902 0 0 0 0.5 0"/>
<feBlend mode="normal" in2="BackgroundImageFix" result="effect1_dropShadow_51_432"/>
<feBlend mode="normal" in="SourceGraphic" in2="effect1_dropShadow_51_432" result="shape"/>
</filter>
</defs>
</svg>
