<svg width="20" height="21" viewBox="0 0 20 21" fill="none" xmlns="http://www.w3.org/2000/svg">
<path d="M10 5.38263C11.6083 5.38263 12.9167 6.69096 12.9167 8.2993C12.9167 9.90763 11.6083 11.216 10 11.216C8.39167 11.216 7.08333 9.90763 7.08333 8.2993C7.08333 6.69096 8.39167 5.38263 10 5.38263ZM4.16667 7.46596C4.63333 7.46596 5.06667 7.59096 5.44167 7.81596C5.31667 9.00763 5.66667 10.191 6.38333 11.116C5.96667 11.916 5.13333 12.466 4.16667 12.466C2.78333 12.466 1.66667 11.3493 1.66667 9.96596C1.66667 8.58263 2.78333 7.46596 4.16667 7.46596ZM15.8333 7.46596C17.2167 7.46596 18.3333 8.58263 18.3333 9.96596C18.3333 11.3493 17.2167 12.466 15.8333 12.466C14.8667 12.466 14.0333 11.916 13.6167 11.116C14.3333 10.191 14.6833 9.00763 14.5583 7.81596C14.9333 7.59096 15.3667 7.46596 15.8333 7.46596ZM4.58333 16.0076C4.58333 14.2826 7.00833 12.8826 10 12.8826C12.9917 12.8826 15.4167 14.2826 15.4167 16.0076V17.466H4.58333V16.0076ZM0 17.466V16.216C0 15.0576 1.575 14.0826 3.70833 13.7993C3.21667 14.366 2.91667 15.1493 2.91667 16.0076V17.466H0ZM20 17.466H17.0833V16.0076C17.0833 15.1493 16.7833 14.366 16.2917 13.7993C18.425 14.0826 20 15.0576 20 16.216V17.466Z" fill="#4F524F"/>
</svg>
